<svg id="Layer_1" data-name="Layer 1" xmlns="http://www.w3.org/2000/svg" viewBox="0 0 55 55"><defs><style>.cls-1{fill:#00364c;}</style></defs><title>facebook_38co</title><path class="cls-1" d="M54.83,16.16a20.19,20.19,0,0,0-1.28-6.68,13.46,13.46,0,0,0-3.17-4.87,13.42,13.42,0,0,0-4.87-3.17A20.09,20.09,0,0,0,38.84.17C35.9,0,35,0,27.5,0S19.1,0,16.16.17A20.18,20.18,0,0,0,9.49,1.45,13.43,13.43,0,0,0,4.62,4.62,13.47,13.47,0,0,0,1.44,9.49,20.11,20.11,0,0,0,.17,16.16C0,19.09,0,20,0,27.5s0,8.4.17,11.34a20.21,20.21,0,0,0,1.28,6.67,13.48,13.48,0,0,0,3.17,4.87,13.46,13.46,0,0,0,4.87,3.17,20.16,20.16,0,0,0,6.67,1.28C19.09,55,20,55,27.5,55h1.88V33.7H22.21V25.4h7.17V19.28c0-7.1,4.34-11,10.68-11a59.31,59.31,0,0,1,6.4.33v7.42h-4.4c-3.45,0-4.11,1.64-4.11,4v5.3h8.22L45.1,33.7H38V54.87l.89,0a20.26,20.26,0,0,0,6.68-1.28,14.06,14.06,0,0,0,8-8,20.1,20.1,0,0,0,1.28-6.67C55,35.9,55,35,55,27.5S55,19.09,54.83,16.16Z"/></svg>