<svg id="Layer_1" data-name="Layer 1" xmlns="http://www.w3.org/2000/svg" viewBox="0 0 55 55"><defs><style>.cls-1{fill:#69be28;}</style></defs><title>instagram_hover_38co</title><path class="cls-1" d="M54.9,16.4a20.13,20.13,0,0,0-1.22-6.68,13.43,13.43,0,0,0-3.13-4.89,13.44,13.44,0,0,0-4.84-3.21A20.15,20.15,0,0,0,39.05.29C36.12.14,35.19.1,27.73,0S19.33,0,16.41.1A20.16,20.16,0,0,0,9.73,1.33,13.45,13.45,0,0,0,4.83,4.45,13.5,13.5,0,0,0,1.62,9.29,20.2,20.2,0,0,0,.29,15.95C.14,18.88.1,19.81,0,27.27S0,35.67.1,38.6a20.14,20.14,0,0,0,1.22,6.68,13.45,13.45,0,0,0,3.13,4.89,13.46,13.46,0,0,0,4.84,3.21,20.21,20.21,0,0,0,6.66,1.33c2.93.16,3.86.2,11.32.26s8.4,0,11.33-.07a20.17,20.17,0,0,0,6.68-1.22,14,14,0,0,0,8.1-8,20.16,20.16,0,0,0,1.33-6.66c.16-2.93.2-3.86.26-11.32S55,19.34,54.9,16.4ZM48.8,36.34a15.7,15.7,0,0,1-1,5.2,11,11,0,0,1-6.27,6.27,15.75,15.75,0,0,1-5.2,1c-2.28.1-3,.13-8.83.13s-6.55,0-8.84-.13a15.74,15.74,0,0,1-5.2-1A11,11,0,0,1,7.2,41.54a15.7,15.7,0,0,1-1-5.2c-.1-2.29-.13-3-.13-8.84s0-6.55.13-8.83a15.72,15.72,0,0,1,1-5.2A10.95,10.95,0,0,1,13.46,7.2a15.66,15.66,0,0,1,5.2-1c2.29-.1,3-.13,8.84-.13s6.55,0,8.83.13a15.72,15.72,0,0,1,5.2,1,10.95,10.95,0,0,1,6.27,6.27,15.67,15.67,0,0,1,1,5.2c.1,2.29.13,3,.13,8.84S48.91,34.05,48.8,36.34Z"/><circle class="cls-1" cx="27.5" cy="27.5" r="7.14"/><path class="cls-1" d="M44.94,18.84a11.86,11.86,0,0,0-.74-4,7.09,7.09,0,0,0-4.07-4.07,11.88,11.88,0,0,0-4-.74c-2.26-.1-2.94-.13-8.66-.13s-6.4,0-8.66.13a11.89,11.89,0,0,0-4,.74,7.11,7.11,0,0,0-4.07,4.07,11.82,11.82,0,0,0-.74,4c-.1,2.26-.13,2.94-.13,8.66s0,6.4.13,8.66a11.89,11.89,0,0,0,.74,4,7.11,7.11,0,0,0,4.07,4.07,11.86,11.86,0,0,0,4,.74c2.26.1,2.94.13,8.66.13s6.4,0,8.66-.12a11.92,11.92,0,0,0,4-.74,7.09,7.09,0,0,0,4.07-4.07,11.82,11.82,0,0,0,.74-4c.1-2.26.13-2.94.13-8.66S45,21.1,44.94,18.84ZM27.5,39A11.53,11.53,0,1,1,39,27.5,11.55,11.55,0,0,1,27.5,39Zm11.44-20.4a2.57,2.57,0,1,1,2.57-2.57A2.57,2.57,0,0,1,38.94,18.63Z"/></svg>