<svg id="Layer_1" data-name="Layer 1" xmlns="http://www.w3.org/2000/svg" viewBox="0 0 55 55"><defs><style>.cls-1{fill:#00364c;}</style></defs><title>mail_38co</title><path class="cls-1" d="M54.83,16.16a20.17,20.17,0,0,0-1.28-6.67,13.46,13.46,0,0,0-3.17-4.87,13.46,13.46,0,0,0-4.87-3.17A20.14,20.14,0,0,0,38.84.16C35.9,0,35,0,27.5,0S19.09,0,16.16.16A20.2,20.2,0,0,0,9.49,1.44,13.45,13.45,0,0,0,4.62,4.61,13.46,13.46,0,0,0,1.44,9.49,20.07,20.07,0,0,0,.17,16.16C0,19.09,0,20,0,27.5s0,8.4.17,11.34a20.2,20.2,0,0,0,1.28,6.68,13.46,13.46,0,0,0,3.17,4.87,13.46,13.46,0,0,0,4.87,3.17,20.09,20.09,0,0,0,6.68,1.28C19.09,55,20,55,27.5,55s8.4,0,11.34-.17a20.2,20.2,0,0,0,6.68-1.28,14.06,14.06,0,0,0,8-8,20.1,20.1,0,0,0,1.28-6.68C55,35.9,55,35,55,27.5S55,19.09,54.83,16.16ZM12.62,12.5H42.38a4.78,4.78,0,0,1,2.57.75L27.5,28.73,10,13.25A4.78,4.78,0,0,1,12.62,12.5Zm-4.74,26a4.82,4.82,0,0,1-.08-.87V17.32a4.81,4.81,0,0,1,.08-.86l12.45,11Zm34.49,4H12.61A4.75,4.75,0,0,1,10,41.75L23.22,30.06l3,2.67h0a1.89,1.89,0,0,0,.27.2l0,0,.27.13.1,0,.23.06.25,0h.19l.25,0,.23-.06.1,0,.27-.13,0,0a1.82,1.82,0,0,0,.27-.2h0l3-2.67L45,41.75A4.81,4.81,0,0,1,42.38,42.5Zm4.82-4.82a4.81,4.81,0,0,1-.08.86l-12.45-11,12.45-11a4.81,4.81,0,0,1,.08.86Z"/></svg>