<!-- Generator: Adobe Illustrator 21.1.0, SVG Export Plug-In  -->
<svg version="1.1"
	 xmlns="http://www.w3.org/2000/svg" xmlns:xlink="http://www.w3.org/1999/xlink" xmlns:a="http://ns.adobe.com/AdobeSVGViewerExtensions/3.0/"
	 x="0px" y="0px" width="153.416px" height="153.416px" viewBox="0 0 153.416 153.416"
	 style="enable-background:new 0 0 153.416 153.416;" xml:space="preserve">
<style type="text/css">
	.st0{fill:#00364C;}
</style>
<defs>
</defs>
<g>
	<path class="st0" d="M76.708,1.5c0.967,0,1.871,0.373,2.548,1.049l71.61,71.611c0.677,0.677,1.049,1.582,1.049,2.548
		s-0.373,1.871-1.049,2.548l-71.61,71.611c-0.677,0.677-1.582,1.049-2.548,1.049c-0.967,0-1.871-0.373-2.548-1.049L2.549,79.256
		C1.873,78.579,1.5,77.674,1.5,76.708s0.373-1.871,1.049-2.548L74.16,2.549C74.836,1.873,75.741,1.5,76.708,1.5 M76.708,0
		c-1.308,0-2.616,0.496-3.609,1.489L1.489,73.099c-1.985,1.985-1.985,5.233,0,7.217l71.611,71.611
		c0.992,0.992,2.301,1.489,3.609,1.489c1.308,0,2.616-0.496,3.609-1.489l71.61-71.611c1.985-1.985,1.985-5.233,0-7.217L80.317,1.489
		C79.324,0.496,78.016,0,76.708,0L76.708,0z"/>
	<g>
		<g>
			<path class="st0" d="M89.042,84.507c-3.354-2.929-7.466-4.404-12.331-4.404h-0.003c-4.869,0.001-9.021,1.475-12.457,4.404
				c-3.272,2.94-4.911,6.545-4.911,10.826c0,0.225,0.008,0.446,0.016,0.666c0.079,2.002,0.511,3.839,1.305,5.5
				c0.881,1.854,2.1,3.462,3.651,4.844c1.552,1.383,3.375,2.458,5.474,3.216c2.095,0.748,4.404,1.127,6.924,1.127
				c2.514,0,4.824-0.379,6.919-1.127c2.1-0.758,3.923-1.833,5.474-3.216c1.552-1.383,2.77-2.991,3.651-4.844
				c0.881-1.844,1.321-3.902,1.321-6.166C94.076,90.97,92.396,87.365,89.042,84.507z M91.739,101.016
				c-0.805,1.695-1.943,3.205-3.384,4.488c-1.445,1.287-3.164,2.296-5.105,2.996c-1.972,0.705-4.172,1.061-6.54,1.061
				c-2.371,0-4.574-0.357-6.542-1.06c-1.945-0.702-3.663-1.71-5.108-2.997c-1.441-1.284-2.579-2.794-3.385-4.49
				c-0.717-1.501-1.117-3.186-1.195-5.015c-0.009-0.22-0.016-0.442-0.016-0.666c0-3.979,1.484-7.247,4.516-9.97
				c3.219-2.744,7.164-4.135,11.728-4.136h0.003c4.556,0,8.456,1.389,11.603,4.136c3.121,2.659,4.639,5.92,4.639,9.97
				C92.952,97.42,92.544,99.332,91.739,101.016z"/>
			<path class="st0" d="M93.591,74.339c2.948-2.115,5.394-4.666,7.283-7.598c2.165-3.357,3.262-6.95,3.262-10.677
				c0-7.251-2.616-13.41-7.777-18.309c-5.065-4.799-11.676-7.232-19.649-7.232c-7.977,0-14.589,2.433-19.655,7.232
				c-5.146,4.885-7.761,11.026-7.774,18.252c0,0.019-0.001,0.037-0.001,0.056c0,3.728,1.097,7.32,3.262,10.676
				c1.89,2.934,4.338,5.485,7.288,7.599c-4.08,2.193-7.308,5.085-9.609,8.611c-2.544,3.901-3.834,8.281-3.834,13.017
				c0,0.01,0.001,0.021,0.001,0.031c0.008,7.677,2.976,14.135,8.821,19.192c5.892,5.109,13.126,7.7,21.502,7.7
				c8.37,0,15.604-2.591,21.501-7.7c5.851-5.066,8.817-11.535,8.817-19.224c0-4.733-1.288-9.112-3.83-13.018
				C100.893,79.421,97.664,76.53,93.591,74.339z M93.769,101.983c-0.934,1.965-2.252,3.715-3.918,5.199
				c-1.66,1.479-3.625,2.634-5.841,3.434c-2.219,0.792-4.674,1.194-7.3,1.194c-2.63,0-5.086-0.401-7.302-1.192
				c-2.219-0.801-4.184-1.956-5.844-3.435c-1.666-1.484-2.984-3.235-3.919-5.201c-0.861-1.802-1.332-3.812-1.413-5.982h-9.598
				h-1.124c0-0.011-0.001-0.021-0.001-0.031c0-4.537,1.214-8.665,3.651-12.403c2.433-3.728,5.915-6.688,10.447-8.87v-0.502
				c-3.359-2.181-6.063-4.865-8.122-8.061c-2.054-3.185-3.083-6.545-3.083-10.068c0-0.019,0.001-0.037,0.001-0.056h1.124h9.585
				c-0.001-0.064-0.004-0.126-0.004-0.19c0-4.354,1.486-7.857,4.415-10.413c2.884-2.522,6.648-3.8,11.186-3.8
				c4.534,0,8.296,1.279,11.181,3.801c2.929,2.555,4.414,6.058,4.414,10.412c0,4.331-1.478,7.89-4.392,10.577
				c-2.884,2.664-6.654,4.015-11.204,4.015l-0.003,0v8.568h0.003c5.116,0,9.513,1.575,13.071,4.682
				c3.592,3.06,5.419,6.99,5.419,11.672C95.2,97.758,94.718,99.995,93.769,101.983z"/>
			<path class="st0" d="M66.263,65.569c2.683,2.478,6.164,3.717,10.444,3.718l0.003,0c4.276,0,7.758-1.239,10.442-3.718
				c2.689-2.479,4.03-5.725,4.03-9.75c0-4.035-1.342-7.221-4.03-9.566c-2.683-2.345-6.166-3.523-10.442-3.523
				c-4.281,0-7.764,1.178-10.447,3.523c-2.689,2.345-4.03,5.531-4.03,9.566c0,0.064,0.003,0.126,0.004,0.19
				C62.279,59.945,63.618,63.13,66.263,65.569z M67.003,47.099c2.464-2.153,5.73-3.245,9.707-3.245c3.974,0,7.238,1.092,9.703,3.246
				c2.453,2.14,3.645,4.992,3.645,8.719c0,3.73-1.2,6.649-3.669,8.925c-2.457,2.269-5.713,3.42-9.679,3.42l-0.003,0
				c-3.968,0-7.226-1.151-9.683-3.42c-2.426-2.236-3.624-5.096-3.664-8.735c-0.001-0.064-0.004-0.126-0.004-0.19
				C63.357,52.091,64.549,49.24,67.003,47.099z"/>
		</g>
	</g>
</g>
</svg>