<svg id="Layer_1" data-name="Layer 1" xmlns="http://www.w3.org/2000/svg" viewBox="0 0 55 55"><defs><style>.cls-1{fill:#00364c;}</style></defs><title>twitter_38co</title><path class="cls-1" d="M54.84,16.16a20.15,20.15,0,0,0-1.28-6.67,13.49,13.49,0,0,0-3.17-4.87,13.48,13.48,0,0,0-4.87-3.17A20.13,20.13,0,0,0,38.84.17C35.91,0,35,0,27.5,0S19.1,0,16.16.17A20.19,20.19,0,0,0,9.49,1.44,13.47,13.47,0,0,0,4.62,4.61,13.45,13.45,0,0,0,1.44,9.49,20.07,20.07,0,0,0,.17,16.16C0,19.09,0,20,0,27.5s0,8.4.17,11.34a20.18,20.18,0,0,0,1.28,6.68,13.44,13.44,0,0,0,3.17,4.87,13.43,13.43,0,0,0,4.87,3.17,20.1,20.1,0,0,0,6.67,1.28C19.1,55,20,55,27.5,55s8.41,0,11.34-.17a20.22,20.22,0,0,0,6.68-1.28,14.06,14.06,0,0,0,8-8,20.1,20.1,0,0,0,1.28-6.68C55,35.9,55,35,55,27.5S55,19.09,54.84,16.16ZM43.35,19.79c0,.33,0,.67,0,1,0,10.25-7.81,22.07-22.07,22.07h0A22,22,0,0,1,9.4,39.38a15.8,15.8,0,0,0,1.85.11,15.57,15.57,0,0,0,9.63-3.33,7.77,7.77,0,0,1-7.25-5.39,7.72,7.72,0,0,0,3.5-.14A7.76,7.76,0,0,1,10.92,23v-.1a7.7,7.7,0,0,0,3.52,1A7.77,7.77,0,0,1,12,13.55a22,22,0,0,0,16,8.11,7.77,7.77,0,0,1,13.22-7.08,15.57,15.57,0,0,0,4.93-1.88A7.79,7.79,0,0,1,42.76,17a15.48,15.48,0,0,0,4.45-1.22A15.77,15.77,0,0,1,43.35,19.79Z"/></svg>